<svg width="60" height="60" viewBox="0 0 60 60" fill="none" xmlns="http://www.w3.org/2000/svg">
<path d="M57.5 27.0004H7.62625L26.7237 5.17267C27.7237 4.02968 27.7625 2.13071 26.81 0.93072C25.8587 -0.267765 24.2763 -0.315765 23.275 0.827221L1.465 25.7569C0.52125 26.8909 0 28.3969 0 30.0004C0 31.6023 0.52125 33.1098 1.50875 34.2933L23.2763 59.172C23.76 59.7255 24.38 60 25 60C25.66 60 26.32 59.688 26.8112 59.0685C27.7638 57.8685 27.725 55.971 26.725 54.8281L7.5475 33.0003H57.5C58.88 33.0003 60 31.6563 60 30.0004C60 28.3444 58.88 27.0004 57.5 27.0004Z" fill="#C7051A"/>
</svg>
